<svg preserveAspectRatio="none" overflow="visible" style="display: block;" width="26" height="26" viewBox="0 0 26 26" fill="none" xmlns="http://www.w3.org/2000/svg">
<g id="Checkbox">
<path id="Shape" d="M6.77083 3.25C4.82633 3.25 3.25 4.82633 3.25 6.77083V19.2292C3.25 21.1737 4.82633 22.75 6.77083 22.75H19.2292C21.1737 22.75 22.75 21.1737 22.75 19.2292V6.77083C22.75 4.82633 21.1737 3.25 19.2292 3.25H6.77083ZM18.72 10.054L11.4035 17.3621C11.0861 17.6791 10.5719 17.679 10.2547 17.3618L7.28015 14.387C6.96286 14.0697 6.96288 13.5552 7.28019 13.238C7.5975 12.9207 8.11195 12.9207 8.42924 13.238L10.8296 15.6385L17.5716 8.90431C17.8891 8.58719 18.4036 8.58749 18.7207 8.90498C19.0378 9.22246 19.0375 9.73691 18.72 10.054Z" fill="#F5F5F5"/>
</g>
</svg>
